<?xml version="1.0" encoding="utf-8"?>
<!-- Generator: Adobe Illustrator 27.5.0, SVG Export Plug-In . SVG Version: 6.00 Build 0)  -->
<svg version="1.1" id="Layer_1" xmlns="http://www.w3.org/2000/svg" xmlns:xlink="http://www.w3.org/1999/xlink" x="0px" y="0px"
	 viewBox="-24.506 -92.425 83.604 68.625" style="enable-background:new -24.506 -92.425 83.604 68.625;" xml:space="preserve">
<rect x="-24.506" y="-92.425" style="fill:#FFFFFF;" width="83.604" height="68.625"/>
<g>
	
		<radialGradient id="SVGID_1_" cx="33.8734" cy="-409.4905" r="25.503" gradientTransform="matrix(0.5652 0 0 0.1702 9.2253 17.8569)" gradientUnits="userSpaceOnUse">
		<stop  offset="0" style="stop-color:#000000"/>
		<stop  offset="0.0028" style="stop-color:#020202"/>
		<stop  offset="0.0822" style="stop-color:#373737"/>
		<stop  offset="0.1647" style="stop-color:#656565"/>
		<stop  offset="0.2524" style="stop-color:#8F8F8F"/>
		<stop  offset="0.3439" style="stop-color:#B1B1B1"/>
		<stop  offset="0.4404" style="stop-color:#CECECE"/>
		<stop  offset="0.5435" style="stop-color:#E4E4E4"/>
		<stop  offset="0.6563" style="stop-color:#F3F3F3"/>
		<stop  offset="0.7863" style="stop-color:#FCFCFC"/>
		<stop  offset="0.9726" style="stop-color:#FFFFFF"/>
	</radialGradient>
	<path style="opacity:0.82;fill:url(#SVGID_1_);" d="M42.791-51.833c0,2.391-6.458,4.334-14.417,4.334
		c-7.969,0-14.423-1.943-14.423-4.334c0-2.404,6.454-4.344,14.423-4.344C36.333-56.177,42.791-54.238,42.791-51.833z"/>
	<g>
		<path style="fill-rule:evenodd;clip-rule:evenodd;fill:#1C89EA;" d="M35.88-59.536c-0.866-10.556-16.543-7.639-16.543-7.639
			c-0.322-0.594,0.567-2.423,1.705-6.304c-1.409,0.42-1.459,0.519-1.979,1.409c-0.594,1.088-1.211,2.176-1.805,3.263
			c-0.594,1.089-1.187,2.177-1.806,3.264c-0.964,0.37-1.952,0.717-2.942,1.089c-2.695,0.937-2.003,2.545,0.322,1.853
			c0.963-0.248,1.953-0.495,2.917-0.742c0.792,0.643,1.607,1.261,2.423,1.903c0.816,0.667,1.608,1.311,2.424,1.954
			c1.236,1.013,0.841,0.865,2.522,0.32l0,0c-2.25-2.991-3.585-4.153-3.437-4.895c11.474-4.797,16.964,6.181,7.146,7.193
			c-6.973,0.693-17.358-3.609-24.803-3.485c-6.998,0.124-11.449,7.466-7.369,9.493c2.918,1.434,9.323,0.396,9.743,0.939
			c0.47,0.594-0.223,2.225-0.915,5.908l0,0c1.755-0.247,1.483,0.049,2.126-1.384c0.445-0.939,0.891-1.88,1.309-2.819
			c0.446-0.939,0.892-1.879,1.336-2.793c0.99-0.222,1.954-0.42,2.943-0.618c2.399-0.42,2.324-2.15-0.545-1.805
			c-1.038,0.124-2.076,0.223-3.115,0.321c-1.014-0.717-2.027-1.434-3.066-2.126c-1.014-0.717-2.028-1.434-3.041-2.126
			c-0.865-0.594-0.94-0.668-2.399-0.396c2.745,2.967,4.353,4.228,4.328,4.895c-0.049,1.657-4.278,1.633-6.776,0.346
			c-4.525-2.323,0.099-7.317,5.664-6.427c3.486,0.568,8.061,2.398,12.909,4.055c4.352,1.508,8.704,2.892,12.19,3.14
			C32.27-51.353,36.276-54.566,35.88-59.536L35.88-59.536z"/>
	</g>
</g>
<g>
	<path style="fill:#3D3B3C;" d="M8.144-49.434h0.229v4.509h2.573v0.209H8.144V-49.434z"/>
	<path style="fill:#3D3B3C;" d="M11.682-47.658c0.27-0.358,0.661-0.538,1.175-0.538c0.512,0,0.906,0.18,1.181,0.538
		c0.243,0.316,0.365,0.732,0.365,1.248c0,0.518-0.122,0.934-0.365,1.253c-0.279,0.351-0.672,0.525-1.181,0.525
		c-0.514,0-0.905-0.175-1.175-0.525c-0.243-0.319-0.365-0.735-0.365-1.253C11.317-46.925,11.439-47.341,11.682-47.658z
		 M11.837-45.299c0.234,0.327,0.574,0.49,1.02,0.49c0.445,0,0.787-0.163,1.025-0.49c0.203-0.282,0.304-0.649,0.304-1.11
		c0-0.454-0.101-0.825-0.304-1.109c-0.238-0.328-0.58-0.49-1.025-0.49c-0.45,0-0.791,0.162-1.02,0.49
		c-0.203,0.284-0.304,0.655-0.304,1.109C11.533-45.949,11.634-45.582,11.837-45.299z"/>
	<path style="fill:#3D3B3C;" d="M14.754-48.122h0.222l1.202,3.163l1.249-3.163h0.224L16.3-44.716h-0.243L14.754-48.122z"/>
	<path style="fill:#3D3B3C;" d="M19.473-44.631c-0.5,0-0.881-0.179-1.141-0.536c-0.229-0.321-0.346-0.733-0.346-1.242
		c0-0.507,0.117-0.918,0.346-1.233c0.26-0.366,0.641-0.553,1.141-0.553c0.49,0,0.863,0.165,1.121,0.494
		c0.233,0.293,0.35,0.687,0.35,1.182v0.124h-2.734v0.053c0,0.418,0.102,0.77,0.306,1.05c0.229,0.323,0.548,0.484,0.958,0.484
		c0.566,0,0.951-0.258,1.154-0.773l0.175,0.091c-0.09,0.233-0.23,0.423-0.424,0.571C20.125-44.728,19.825-44.631,19.473-44.631z
		 M20.715-46.585c0-0.398-0.098-0.727-0.291-0.984c-0.215-0.293-0.52-0.439-0.912-0.439c-0.404,0-0.721,0.14-0.951,0.425
		c-0.201,0.26-0.316,0.592-0.344,0.999H20.715z"/>
	<path style="fill:#1C89EA;" d="M23.517-49.053v0.932h0.702v0.184h-0.702v3.222h-0.216v-4.337H23.517z"/>
	<path style="fill:#1C89EA;" d="M24.907-47.658c0.271-0.358,0.663-0.538,1.176-0.538c0.514,0,0.906,0.18,1.182,0.538
		c0.243,0.316,0.365,0.732,0.365,1.248c0,0.518-0.122,0.934-0.365,1.253c-0.278,0.351-0.673,0.525-1.182,0.525
		c-0.513,0-0.904-0.175-1.176-0.525c-0.242-0.319-0.363-0.735-0.363-1.253C24.543-46.925,24.665-47.341,24.907-47.658z
		 M25.063-45.299c0.234,0.327,0.574,0.49,1.02,0.49c0.445,0,0.788-0.163,1.027-0.49c0.202-0.282,0.304-0.649,0.304-1.11
		c0-0.454-0.102-0.825-0.304-1.109c-0.239-0.328-0.582-0.49-1.027-0.49c-0.45,0-0.79,0.162-1.02,0.49
		c-0.202,0.284-0.303,0.655-0.303,1.109C24.76-45.949,24.861-45.582,25.063-45.299z"/>
	<path style="fill:#3D3B3C;" d="M30.236-49.434h2.835v0.21h-2.606v1.949h2.073v0.203h-2.073v2.355h-0.229V-49.434z"/>
	<path style="fill:#3D3B3C;" d="M33.699-49.427h0.209v4.711h-0.209V-49.427z"/>
	<path style="fill:#3D3B3C;" d="M36.744-43.536c-0.211,0.097-0.463,0.145-0.756,0.145c-0.343,0-0.618-0.081-0.824-0.242
		c-0.229-0.175-0.346-0.422-0.351-0.742h0.182c0.014,0.274,0.124,0.481,0.332,0.616c0.185,0.129,0.42,0.191,0.708,0.191
		c0.517,0,0.877-0.191,1.08-0.571c0.022-0.044,0.043-0.094,0.064-0.146c0.021-0.056,0.034-0.116,0.043-0.181
		c0.015-0.08,0.022-0.197,0.022-0.354v-0.524c-0.226,0.42-0.619,0.629-1.182,0.629c-0.803,0-1.202-0.407-1.202-1.221v-2.259h0.215
		v2.193c0,0.363,0.067,0.629,0.201,0.802c0.154,0.196,0.413,0.293,0.779,0.293c0.661,0,1.047-0.291,1.154-0.871
		c0.01-0.063,0.016-0.142,0.022-0.24c0.008-0.098,0.012-0.216,0.012-0.351v-1.825h0.215v3.407c-0.004,0.068-0.013,0.143-0.021,0.215
		c-0.009,0.076-0.026,0.156-0.047,0.244C37.305-43.966,37.09-43.703,36.744-43.536z"/>
</g>
</svg>
